<svg width="180" height="240" xmlns="http://www.w3.org/2000/svg" version="1.1" xml:space="preserve" clip-rule="evenodd">
  <g>
    <g fill="rgb(0,0,0)" opacity="0.5">
      <path stroke="null"
            d="m37.38608,79.18345l0,0a8.05821,8.05821 0 0 1 -2.55421,-0.43188a10.45,10.45 0 0 1 -2.09535,-0.98334a11.90918,11.90918 0 0 1 -2.24268,-1.75118l0,0a0.00422,0.00422 0 0 1 -0.00111,-0.00089l0.45753,-0.68213a0.02854,0.02854 0 0 0 0.00344,0.00167a14.42065,14.42065 0 0 0 1.99843,0.72587a17.73238,17.73238 0 0 0 2.0717,0.47096a15.64957,15.64957 0 0 0 2.52601,0.21216c2.10268,0 4.02162,-0.46441 5.70274,-1.38036l0.51071,0.68213c-1.95835,2.08158 -4.10377,3.13697 -6.3772,3.13697l-0.00002,0.00002zm5.46292,-5.82663a1.68467,1.68467 0 0 1 -1.15009,-0.44087a1.42643,1.42643 0 0 1 0,-2.1281a1.72087,1.72087 0 0 1 2.3003,0a1.42643,1.42643 0 0 1 0,2.1281a1.6839,1.6839 0 0 1 -1.15021,0.44087zm-11.38426,0c-0.93005,0 -1.68756,-0.67513 -1.68756,-1.50492s0.75696,-1.50492 1.68756,-1.50492a1.78271,1.78271 0 0 1 1.19239,0.44087a1.39346,1.39346 0 0 1 0,2.1281a1.78304,1.78304 0 0 1 -1.19239,0.44087zm0.63539,-5.09599a3.5622,3.5622 0 0 1 -1.14665,-0.18874a3.44895,3.44895 0 0 1 -0.98922,-0.52503a3.2218,3.2218 0 0 1 -0.74919,-0.80204a3.0244,3.0244 0 0 1 -0.42722,-1.01942l-1.9206,-11.15478l-3.43329,0l0.00089,-2.0455l4.1534,0a1.39479,1.39479 0 0 1 0.83956,0.27756a1.21515,1.21515 0 0 1 0.4593,0.70756l0.54346,2.68999l16.56529,0a1.36459,1.36459 0 0 1 1.02142,0.44409a1.15887,1.15887 0 0 1 0.281,1.01154l-1.66147,8.06088a3.03716,3.03716 0 0 1 -0.42844,1.02453a3.21602,3.21602 0 0 1 -0.75241,0.8047a3.46516,3.46516 0 0 1 -0.99699,0.52603a3.6347,3.6347 0 0 1 -1.1612,0.18874c-0.02221,0 -0.04296,0 -0.06528,-0.00056l-10.06752,0c-0.02132,0.001 -0.04341,0.001 -0.06484,0.001l0,-0.00056l0.00001,0.00001zm12.80414,-9.86134l0,0l-15.05482,0.00211l1.20671,6.84495a0.68979,0.68979 0 0 0 0.26002,0.40424a0.79094,0.79094 0 0 0 0.4764,0.15754l0.01455,0l10.85456,-0.00211l0.01688,0a0.74674,0.74674 0 0 0 0.76007,-0.55967l1.46607,-6.84695l-0.00044,-0.00011z"
            id="svg_4"/>
      <path stroke="null"
            d="m80.85475,85.92415l-3.58506,0l0,-29.31204l3.20692,0l0.37903,3.87151l0.00566,0.05973l0.35583,0l0.01888,-0.03475a7.98083,7.98083 0 0 1 1.35748,-1.838a7.86614,7.86614 0 0 1 1.8109,-1.35604a8.88189,8.88189 0 0 1 2.20937,-0.84156a11.04841,11.04841 0 0 1 2.55577,-0.28855c1.42765,0 2.73118,0.25625 3.87351,0.7614a7.75523,7.75523 0 0 1 2.89094,2.21081c0.79405,0.97312 1.40423,2.17107 1.81346,3.56065c0.41723,1.41478 0.62862,3.0335 0.62862,4.81099c0,1.79781 -0.21094,3.43063 -0.62862,4.85418c-0.41001,1.3989 -1.0202,2.59984 -1.81346,3.57107a7.71859,7.71859 0 0 1 -2.89083,2.20526c-1.13977,0.50205 -2.44252,0.75663 -3.87417,0.75663a11.30621,11.30621 0 0 1 -2.62205,-0.29488a8.82239,8.82239 0 0 1 -2.22325,-0.85122a7.53285,7.53285 0 0 1 -3.08779,-3.1775l-0.01865,-0.03542l-0.36304,0l0.00056,11.36772l-0.00001,0zm7.28871,-26.79524a8.44213,8.44213 0 0 0 -2.97288,0.50971a6.62812,6.62812 0 0 0 -2.30274,1.43753a6.35389,6.35389 0 0 0 -1.48672,2.22269a7.65808,7.65808 0 0 0 -0.52647,2.86242l0,2.77759a7.60735,7.60735 0 0 0 0.52658,2.85553a6.29893,6.29893 0 0 0 1.48672,2.2087a6.61535,6.61535 0 0 0 2.30363,1.42177a8.53984,8.53984 0 0 0 2.9721,0.50349c1.96745,0 3.62148,-0.57333 4.78335,-1.65791c1.16397,-1.08604 1.77916,-2.63426 1.77916,-4.47726l0,-4.48669c0,-1.84577 -0.61496,-3.40121 -1.77838,-4.49801c-1.16497,-1.0988 -2.81933,-1.67957 -4.78435,-1.67957l0,0.00002zm58.5045,20.08563c-1.59274,0 -3.05904,-0.27189 -4.35768,-0.80803a9.00836,9.00836 0 0 1 -3.28519,-2.31096a10.29001,10.29001 0 0 1 -2.07803,-3.65101c-0.48096,-1.43986 -0.7251,-3.06514 -0.7251,-4.83053c0,-1.76172 0.24425,-3.37801 0.72443,-4.8041a9.99214,9.99214 0 0 1 2.07326,-3.59128a8.90099,8.90099 0 0 1 3.27264,-2.25245c1.28843,-0.5187 2.7465,-0.78172 4.33314,-0.78172a11.6445,11.6445 0 0 1 4.10399,0.69334a8.5314,8.5314 0 0 1 3.09823,1.98477a8.67684,8.67684 0 0 1 1.96056,3.13786a12.06373,12.06373 0 0 1 0.6859,4.16084a19.02602,19.02602 0 0 1 -0.12057,2.24135l-16.46059,0l0,1.34849a7.30536,7.30536 0 0 0 0.48917,2.70454a5.89347,5.89347 0 0 0 1.38957,2.08636a6.17558,6.17558 0 0 0 2.16696,1.34083a8.1226,8.1226 0 0 0 2.81523,0.47285c1.53746,0 2.93958,-0.39369 4.05436,-1.13844a5.45926,5.45926 0 0 0 2.23458,-3.00708l3.54321,0c-0.47863,2.13476 -1.58231,3.80078 -3.37434,5.09344a10.2808,10.2808 0 0 1 -1.43331,0.8359a10.41191,10.41191 0 0 1 -1.56544,0.59675a11.60509,11.60509 0 0 1 -1.70155,0.35883a13.84222,13.84222 0 0 1 -1.84344,0.11946l0.00001,-0.00001zm-0.04252,-20.17123a8.19988,8.19988 0 0 0 -2.72241,0.44021a6.25485,6.25485 0 0 0 -2.12943,1.24347a5.53764,5.53764 0 0 0 -1.38691,1.92571a6.20023,6.20023 0 0 0 -0.49373,2.48272l0,0.66481l13.03807,0l0,-0.9215a6.15316,6.15316 0 0 0 -0.45708,-2.38701a5.26008,5.26008 0 0 0 -1.28987,-1.84466a5.76424,5.76424 0 0 0 -1.99321,-1.18496a7.61745,7.61745 0 0 0 -2.56543,-0.41878l0,-0.00001zm-23.37626,20.17123c-1.59274,0 -3.05904,-0.27189 -4.35768,-0.80803a8.99881,8.99881 0 0 1 -3.28519,-2.31096a10.29001,10.29001 0 0 1 -2.07803,-3.65101c-0.48096,-1.43986 -0.7251,-3.06514 -0.7251,-4.83053c0,-1.76328 0.24425,-3.37956 0.72443,-4.8041a9.99214,9.99214 0 0 1 2.07337,-3.59128a8.9041,8.9041 0 0 1 3.27187,-2.25245c1.28909,-0.5187 2.74717,-0.78172 4.33326,-0.78172a11.6445,11.6445 0 0 1 4.10455,0.69334a8.53162,8.53162 0 0 1 3.09757,1.98477a8.66851,8.66851 0 0 1 1.96112,3.13786a12.05862,12.05862 0 0 1 0.6859,4.16084a19.02946,19.02946 0 0 1 -0.12035,2.24135l-16.46126,0l0,1.34849a7.30536,7.30536 0 0 0 0.48917,2.70454a5.88425,5.88425 0 0 0 1.38957,2.08636a6.17458,6.17458 0 0 0 2.16719,1.34083a8.11517,8.11517 0 0 0 2.815,0.47285c1.53746,0 2.93958,-0.39369 4.05436,-1.13844a5.45637,5.45637 0 0 0 2.23435,-3.00719l3.54321,0c-0.47863,2.13476 -1.58231,3.80078 -3.37434,5.09344a10.19631,10.19631 0 0 1 -2.99897,1.4322a11.61541,11.61541 0 0 1 -1.70155,0.35883a13.84222,13.84222 0 0 1 -1.84244,0.12001l0.00001,0zm-0.04307,-20.17123a8.19899,8.19899 0 0 0 -2.72241,0.44021a6.25485,6.25485 0 0 0 -2.12943,1.24347a5.52398,5.52398 0 0 0 -1.38646,1.92571a6.20023,6.20023 0 0 0 -0.49395,2.48272l0,0.66481l13.0384,0l0,-0.9215a6.14816,6.14816 0 0 0 -0.45708,-2.38701a5.26008,5.26008 0 0 0 -1.28998,-1.84433a5.7628,5.7628 0 0 0 -1.99321,-1.18496a7.61834,7.61834 0 0 0 -2.56587,-0.41912l-0.00001,-0.00001zm-57.77752,20.17123c-2.73307,0 -5.02404,-0.67724 -6.62568,-1.9569a6.29971,6.29971 0 0 1 -1.7886,-2.24213a6.76779,6.76779 0 0 1 -0.62229,-2.84787l3.54321,0c0.01754,1.27533 0.54257,2.35103 1.51858,3.11099s2.35148,1.16242 3.97465,1.16242a8.2122,8.2122 0 0 0 2.11466,-0.25247a4.74415,4.74415 0 0 0 1.59463,-0.73786a3.2752,3.2752 0 0 0 1.00765,-1.19195a3.61271,3.61271 0 0 0 0.34928,-1.60229a3.34858,3.34858 0 0 0 -0.18874,-1.15232a2.58208,2.58208 0 0 0 -0.56745,-0.91239a3.20625,3.20625 0 0 0 -0.94026,-0.66347a5.49434,5.49434 0 0 0 -1.30675,-0.41379l-4.78657,-0.89773a11.19119,11.19119 0 0 1 -2.58929,-0.77195a6.22843,6.22843 0 0 1 -1.83622,-1.22881a4.73327,4.73327 0 0 1 -1.09481,-1.6829a6.01538,6.01538 0 0 1 -0.36471,-2.14831a6.39497,6.39497 0 0 1 0.58742,-2.76227a5.75491,5.75491 0 0 1 1.67313,-2.07281c1.47107,-1.15465 3.57751,-1.76528 6.09132,-1.76528a12.27323,12.27323 0 0 1 3.5461,0.48185a7.7973,7.7973 0 0 1 2.65746,1.36237c1.4513,1.17141 2.23846,2.83743 2.27598,4.81843l-3.54399,0c-0.11103,-2.60906 -1.77183,-3.93202 -4.93556,-3.93202a7.88124,7.88124 0 0 0 -2.03173,0.24203a4.4153,4.4153 0 0 0 -1.4966,0.69501a3.02362,3.02362 0 0 0 -0.92527,1.10158a3.2833,3.2833 0 0 0 -0.3142,1.44653a3.12576,3.12576 0 0 0 0.37748,1.5661a2.57575,2.57575 0 0 0 1.06794,1.01398l0.005,0.00211c0.87953,0.37748 1.27444,0.51326 2.1936,0.68835l4.40187,0.81158a10.4158,10.4158 0 0 1 2.54067,0.75674a6.00994,6.00994 0 0 1 1.80968,1.24413a4.87128,4.87128 0 0 1 1.08615,1.73097a6.46813,6.46813 0 0 1 0.36338,2.2288a6.44082,6.44082 0 0 1 -0.6184,2.84221a5.932,5.932 0 0 1 -1.76317,2.12699c-1.55045,1.17908 -3.77725,1.80236 -6.4396,1.80236zm39.72006,-0.42766l-3.5854,0l0,-18.95075a4.42174,4.42174 0 0 1 0.20517,-1.41245a2.53134,2.53134 0 0 1 0.61341,-1.00277a2.59962,2.59962 0 0 1 1.02875,-0.60441a4.72528,4.72528 0 0 1 1.46263,-0.20439l7.66841,0l0,2.9438l-7.39263,0l-0.00033,19.23097l-0.00001,0z"
            id="svg_5"/>
    </g>
    <g transform="matrix(1.89682 0 0 1.89682 -1.5642 -167.039)" opacity="0.5">
      <text x="23.43384" y="165.81385" font-family="'Arial', sans-serif" font-weight="400" font-size="10" fill="rgb(0,0,0)">NO IMAGE</text>
      <text x="21.55265" y="180.81385" font-family="'Arial', sans-serif" font-weight="400" font-size="10" fill="rgb(0,0,0)">AVAILABLE</text>
    </g>
  </g>
</svg>
